<svg version="1.1" id="Layer_1" xmlns="http://www.w3.org/2000/svg" xmlns:xlink="http://www.w3.org/1999/xlink" x="0px" y="0px"
	 width="100%" viewBox="0 0 512 512" enable-background="new 0 0 512 512" xml:space="preserve">
<path fill="#010101" opacity="1.000000" stroke="none" 
	d="
M251.000000,513.000000 
	C167.353622,513.000000 84.207245,513.000000 1.030434,513.000000 
	C1.030434,342.395264 1.030434,171.790527 1.030434,1.092888 
	C171.563065,1.092888 342.126190,1.092888 512.844666,1.092888 
	C512.844666,171.666550 512.844666,342.333252 512.844666,513.000000 
	C425.790497,513.000000 338.645233,513.000000 251.000000,513.000000 
M58.513119,479.675476 
	C68.248878,482.059052 78.078842,481.910950 86.524551,476.484894 
	C112.229996,459.970215 135.942688,440.908813 157.986267,419.668579 
	C165.066696,412.846222 173.344330,406.707672 182.097931,402.280182 
	C214.511627,385.885590 249.006439,380.201141 284.920563,386.216766 
	C314.367798,391.149170 341.490936,402.083618 362.878815,423.616211 
	C382.971802,443.845154 404.636688,462.105347 429.175751,476.346375 
	C447.158722,486.782623 462.249451,483.031586 471.783478,466.807007 
	C472.959778,464.805176 474.016296,462.708801 474.897095,460.561401 
	C481.789551,443.756805 483.663727,426.055420 483.247131,408.160522 
	C482.321259,368.389618 473.930298,329.945007 461.128571,292.433350 
	C450.714722,261.918793 436.100830,233.640091 414.473907,209.407120 
	C404.462830,198.189682 393.522217,187.987732 379.649078,180.368210 
	C372.476624,175.750046 364.841919,173.902359 356.110840,173.939896 
	C288.140167,174.232178 220.167603,174.065292 152.195969,174.205124 
	C148.694107,174.212341 144.897995,175.110840 141.742661,176.636368 
	C118.598358,187.825928 101.379730,205.704834 86.853203,226.410461 
	C67.593262,253.862946 55.017506,284.411896 46.735367,316.688995 
	C37.457653,352.846100 29.415842,389.261414 32.976006,427.063263 
	C34.120018,439.210358 36.141369,451.201996 41.389980,462.320770 
	C44.895565,469.746979 49.154434,476.759430 58.513119,479.675476 
M232.965134,120.723839 
	C232.965134,128.337021 232.965134,135.950195 232.965134,143.751862 
	C252.176056,143.751862 270.904510,143.751862 290.076263,143.751862 
	C290.076263,136.213669 290.158539,128.924713 290.059235,121.638214 
	C289.848724,106.192993 278.150970,93.539810 263.684998,92.995026 
	C246.913895,92.363426 234.425095,103.264725 232.965134,120.723839 
z"/>
<path fill="#F0594C" opacity="1.000000" stroke="none" 
	d="
M380.018402,180.945694 
	C393.522217,187.987732 404.462830,198.189682 414.473907,209.407120 
	C436.100830,233.640091 450.714722,261.918793 461.128571,292.433350 
	C473.930298,329.945007 482.321259,368.389618 483.247131,408.160522 
	C483.663727,426.055420 481.789551,443.756805 474.897095,460.561401 
	C474.016296,462.708801 472.959778,464.805176 471.783478,466.807007 
	C462.249451,483.031586 447.158722,486.782623 429.175751,476.346375 
	C404.636688,462.105347 382.971802,443.845154 362.878815,423.616211 
	C341.490936,402.083618 314.367798,391.149170 284.920563,386.216766 
	C249.006439,380.201141 214.511627,385.885590 182.097931,402.280182 
	C173.344330,406.707672 165.066696,412.846222 157.986267,419.668579 
	C135.942688,440.908813 112.229996,459.970215 86.524551,476.484894 
	C78.078842,481.910950 68.248878,482.059052 58.247078,479.008331 
	C59.171532,472.852966 60.239307,467.334747 61.572586,461.881439 
	C69.692345,428.670319 82.197762,397.173981 98.923515,367.370239 
	C100.449425,364.651215 102.912407,362.458038 105.244156,360.163879 
	C124.044273,377.251801 145.682968,384.912994 170.830490,383.142334 
	C219.890503,379.688019 256.318695,331.697845 246.515305,283.350067 
	C242.929138,265.664001 234.545822,250.727402 222.178101,237.650803 
	C240.332962,224.927521 259.879547,215.412598 279.992493,207.047104 
	C305.188293,196.567551 331.252930,189.056030 358.265961,184.909561 
	C365.548004,183.791779 372.769257,182.277802 380.018402,180.945694 
M330.175507,240.636047 
	C303.817413,258.409180 292.829895,289.530762 302.539337,318.914062 
	C312.306427,348.471863 339.394165,366.674072 371.375183,365.169830 
	C412.302826,363.244781 441.750366,325.155243 433.474609,284.846039 
	C423.765228,237.553940 372.887756,215.445084 330.175507,240.636047 
z"/>
<path fill="#D84F45" opacity="1.000000" stroke="none" 
	d="
M379.833740,180.656952 
	C372.769257,182.277802 365.548004,183.791779 358.265961,184.909561 
	C331.252930,189.056030 305.188293,196.567551 279.992493,207.047104 
	C259.879547,215.412598 240.332962,224.927521 221.870804,237.523438 
	C200.888214,218.990875 176.845062,212.007309 149.480179,216.009232 
	C104.667656,222.562714 72.067268,268.509888 80.374367,313.040314 
	C83.781891,331.306458 92.003723,346.843262 104.940231,360.020691 
	C102.912407,362.458038 100.449425,364.651215 98.923515,367.370239 
	C82.197762,397.173981 69.692345,428.670319 61.572586,461.881439 
	C60.239307,467.334747 59.171532,472.852966 57.951332,478.758850 
	C49.154434,476.759430 44.895565,469.746979 41.389980,462.320770 
	C36.141369,451.201996 34.120018,439.210358 32.976006,427.063263 
	C29.415842,389.261414 37.457653,352.846100 46.735367,316.688995 
	C55.017506,284.411896 67.593262,253.862946 86.853203,226.410461 
	C101.379730,205.704834 118.598358,187.825928 141.742661,176.636368 
	C144.897995,175.110840 148.694107,174.212341 152.195969,174.205124 
	C220.167603,174.065292 288.140167,174.232178 356.110840,173.939896 
	C364.841919,173.902359 372.476624,175.750046 379.833740,180.656952 
z"/>
<path fill="#839CA8" opacity="1.000000" stroke="none" 
	d="
M232.976166,120.257256 
	C234.425095,103.264725 246.913895,92.363426 263.684998,92.995026 
	C278.150970,93.539810 289.848724,106.192993 290.059235,121.638214 
	C290.158539,128.924713 290.076263,136.213669 290.076263,143.751862 
	C270.904510,143.751862 252.176056,143.751862 232.965134,143.751862 
	C232.965134,135.950195 232.965134,128.337021 232.976166,120.257256 
z"/>
<path fill="#050404" opacity="1.000000" stroke="none" 
	d="
M105.244164,360.163879 
	C92.003723,346.843262 83.781891,331.306458 80.374367,313.040314 
	C72.067268,268.509888 104.667656,222.562714 149.480179,216.009232 
	C176.845062,212.007309 200.888214,218.990875 221.711517,237.818756 
	C234.545822,250.727402 242.929138,265.664001 246.515305,283.350067 
	C256.318695,331.697845 219.890503,379.688019 170.830490,383.142334 
	C145.682968,384.912994 124.044273,377.251801 105.244164,360.163879 
M133.143265,314.108704 
	C126.108955,314.108704 119.074646,314.108704 112.040337,314.108704 
	C111.635056,314.571381 111.229774,315.034058 110.824501,315.496735 
	C114.473579,321.464233 118.122650,327.431702 122.036682,333.996185 
	C128.646500,341.718109 136.611221,347.427277 146.872192,350.867767 
	C147.385971,350.544983 147.899765,350.222198 148.609772,348.995422 
	C148.609772,337.445038 148.609772,325.894684 148.609772,314.342987 
	C143.319260,314.342987 138.690796,314.342987 133.143265,314.108704 
M195.719711,255.378998 
	C190.404266,252.499786 185.088821,249.620560 179.064590,246.357422 
	C179.064590,254.496841 179.064590,261.252991 178.854172,268.923370 
	C178.854172,273.849945 178.854172,278.776520 178.854172,284.079285 
	C185.163345,284.079285 191.102066,284.079254 197.040787,284.079254 
	C203.073151,284.079254 209.105530,284.079285 215.704895,284.079285 
	C211.859924,272.117859 205.854706,262.727905 195.719711,255.378998 
M146.180664,284.084106 
	C146.999390,283.350281 148.521576,282.625763 148.531448,281.881195 
	C148.682724,270.468658 148.636826,259.053497 148.636826,247.569061 
	C132.025375,250.664474 113.210297,269.666840 112.367424,284.086212 
	C123.330513,284.086212 134.281631,284.086212 146.180664,284.084106 
M201.524277,338.027252 
	C208.122162,331.331940 213.176254,323.761444 215.409119,314.357178 
	C203.036728,314.357178 191.119431,314.357178 178.772568,314.357178 
	C178.772568,325.026947 178.772568,335.462616 178.772568,345.898285 
	C178.772568,347.516235 178.772568,349.134155 178.772568,351.195160 
	C187.564545,348.610504 194.749893,344.390503 201.524277,338.027252 
z"/>
<path fill="#050404" opacity="1.000000" stroke="none" 
	d="
M330.472992,240.425934 
	C372.887756,215.445084 423.765228,237.553940 433.474609,284.846039 
	C441.750366,325.155243 412.302826,363.244781 371.375183,365.169830 
	C339.394165,366.674072 312.306427,348.471863 302.539337,318.914062 
	C292.829895,289.530762 303.817413,258.409180 330.472992,240.425934 
M397.074402,276.478088 
	C389.850861,267.056793 380.283203,262.021637 368.443756,261.691315 
	C353.142181,261.264404 341.206299,267.569885 333.940002,281.086304 
	C326.631348,294.681549 327.392670,308.513000 336.341156,321.100250 
	C345.068451,333.376251 357.543457,338.530243 372.478302,336.240509 
	C400.750183,331.905975 413.453278,301.619049 397.074402,276.478088 
z"/>
<path fill="#E1E1E1" opacity="1.000000" stroke="none" 
	d="
M145.706711,284.085144 
	C134.281631,284.086212 123.330513,284.086212 112.367424,284.086212 
	C113.210297,269.666840 132.025375,250.664474 148.636826,247.569061 
	C148.636826,259.053497 148.682724,270.468658 148.531448,281.881195 
	C148.521576,282.625763 146.999390,283.350281 145.706711,284.085144 
z"/>
<path fill="#FBFBFB" opacity="1.000000" stroke="none" 
	d="
M201.266205,338.272705 
	C194.749893,344.390503 187.564545,348.610504 178.772568,351.195160 
	C178.772568,349.134155 178.772568,347.516235 178.772568,345.898285 
	C178.772568,335.462616 178.772568,325.026947 178.772568,314.357178 
	C191.119431,314.357178 203.036728,314.357178 215.409119,314.357178 
	C213.176254,323.761444 208.122162,331.331940 201.266205,338.272705 
z"/>
<path fill="#FDFDFD" opacity="1.000000" stroke="none" 
	d="
M196.059143,255.970459 
	C205.854706,262.727905 211.859924,272.117859 215.704895,284.079285 
	C209.105530,284.079285 203.073151,284.079254 197.040787,284.079254 
	C191.102066,284.079254 185.163345,284.079285 178.854172,284.079285 
	C178.854172,278.776520 178.854172,273.849945 179.305069,268.431915 
	C185.190369,263.950439 190.624756,259.960449 196.059143,255.970459 
z"/>
<path fill="#FDFDFD" opacity="1.000000" stroke="none" 
	d="
M146.413971,350.406067 
	C136.611221,347.427277 128.646500,341.718109 121.972282,333.317932 
	C122.770988,331.073517 123.514664,329.425720 124.519409,327.956390 
	C127.647247,323.382263 130.873978,318.875732 134.062347,314.342987 
	C138.690796,314.342987 143.319260,314.342987 148.609772,314.342987 
	C148.609772,325.894684 148.609772,337.445038 148.169067,349.492065 
	C147.290237,350.127808 146.852097,350.266937 146.413971,350.406067 
z"/>
<path fill="#D5D5D5" opacity="1.000000" stroke="none" 
	d="
M133.602814,314.225830 
	C130.873978,318.875732 127.647247,323.382263 124.519409,327.956390 
	C123.514664,329.425720 122.770988,331.073517 121.839806,333.019440 
	C118.122650,327.431702 114.473579,321.464233 110.824501,315.496735 
	C111.229774,315.034058 111.635056,314.571381 112.040337,314.108704 
	C119.074646,314.108704 126.108955,314.108704 133.602814,314.225830 
z"/>
<path fill="#E4E4E4" opacity="1.000000" stroke="none" 
	d="
M195.889435,255.674713 
	C190.624756,259.960449 185.190369,263.950439 179.410278,267.974792 
	C179.064590,261.252991 179.064590,254.496841 179.064590,246.357422 
	C185.088821,249.620560 190.404266,252.499786 195.889435,255.674713 
z"/>
<path fill="#D5D5D5" opacity="1.000000" stroke="none" 
	d="
M146.643082,350.636902 
	C146.852097,350.266937 147.290237,350.127808 148.070969,349.944031 
	C147.899765,350.222198 147.385971,350.544983 146.643082,350.636902 
z"/>
<path fill="#FDFDFD" opacity="1.000000" stroke="none" 
	d="
M397.300720,276.757751 
	C413.453278,301.619049 400.750183,331.905975 372.478302,336.240509 
	C357.543457,338.530243 345.068451,333.376251 336.341156,321.100250 
	C327.392670,308.513000 326.631348,294.681549 333.940002,281.086304 
	C341.206299,267.569885 353.142181,261.264404 368.443756,261.691315 
	C380.283203,262.021637 389.850861,267.056793 397.300720,276.757751 
z"/>
</svg>